<svg version="1.1" id="Layer_1" xmlns="http://www.w3.org/2000/svg" xmlns:xlink="http://www.w3.org/1999/xlink" x="0px" y="0px"
	 viewBox="0 0 750 750" enable-background="new 0 0 750 750" xml:space="preserve">
<g>
	<path fill="#EF9DBA" d="M488.9,272.8c-0.3,3.4-6.2,5.7-13.3,5c-7.1-0.6-12.5-3.9-12.2-7.2c0.3-3.4,6.2-5.7,13.3-5
		C483.7,266.1,489.2,269.4,488.9,272.8z M352.3,233.7c-6.2-3.4-12.6-3.7-14.2-0.7c-1.6,3,2.1,8.2,8.3,11.5
		c6.2,3.4,12.6,3.7,14.2,0.7C362.3,242.2,358.5,237,352.3,233.7z"/>
	<path fill="#F4878C" d="M387.9,267.1c3.5,1.4,4,7.6,3.3,10.6c-1.6,6.6-8.9,9.6-10.6,1.2c-0.6-2.8,0.2-8.2,2.6-10.8
		C384.3,266.8,385.8,266.3,387.9,267.1z"/>
	<path fill="#BBDEB2" d="M461.5,339.7c0.3,10.5,0.9,20.9,2.1,31.2c-21.7-5.8-45.1-9.2-72.4-10.5c3.9-9.1,7.5-18.3,11.1-27.5
		c3.6,1,7.2,1.8,10.9,2.6c1.2,5.4,4.3,9.3,7.3,11.7c5,4.1,12.1,5,17.8,2c3-1.6,6.6-5.3,9.5-9.6C452.4,339.9,457,339.8,461.5,339.7z"
		/>
	<path fill="#9DC086" d="M510.5,493.4c-55.7,36.4-133.7,33.3-186.8-6.9c21.9-33.2,41.2-68.1,57.9-104.3l1,0.1
		c29.4,2.7,57.4,5.3,84.9,12.5C474.6,430.5,488.3,463.9,510.5,493.4z"/>
	<path fill="#EFA5C4" d="M588.6,535.6c7.7,0.7,13.8,5.2,13.8,5.3c-0.7,3.5-0.1,8.1,1.9,11.2c-3.9,4.1-8.8,6.7-13.6,7.2
		c-5.6,0.6-11.1-1.6-14.1-5.7c-3.1-4.2-3.1-10.3,0-14C579.1,536.6,583.7,535.2,588.6,535.6z M595.2,508c-4.7,2.6-7.5,8.4-6.6,13.7
		c1.5,8.9,11.4,13.5,15.7,15.1c1.4-2,3.1-3.7,5.4-4.9c2.4-1.3,5-1.9,7.5-1.9c-0.3-8-1.5-15.9-6.9-20.5
		C606.3,506,600.1,505.6,595.2,508z M638.9,569c4.2,0.3,8.5-1.9,10.6-5.4c2.2-3.5,2.1-8.4-0.2-11.8c-1.8-2.7-5-4.8-9-5.8
		c-3-0.8-6.2-0.9-9.7-0.9c-0.6,4.3-2.8,8.3-6.5,11c1.5,3.4,3.2,6.2,5.3,8.3C632.2,567.2,635.6,568.8,638.9,569z M620.1,576.9
		c3-5.1,3.1-12.1,0.4-18.8c-4.1,1-9.5-0.3-11.9-1.8c-1.8,0.2-9.4,7.8-10.4,12.9c-1.1,5.5,1.5,11.3,6,13.5
		C609.4,585.3,616.8,582.5,620.1,576.9z M646,516.2c-3-3.1-7.8-4.5-12.1-3.6c-7.7,1.6-11.9,8.5-13.2,17.9c3.5,1.3,6.7,3.7,8.6,7.3
		c0.5,0.8,0.8,1.7,1.1,2.6c6.8-1.9,15.7-4.7,18.3-12.1C650.1,524.2,649,519.3,646,516.2z M229.2,412.8c5.5,3.5,8.2,9.2,8.2,9.2
		c-1.9,2.3-3.1,6-2.9,9c-4.4,1.5-9.1,1.6-12.9,0.1c-4.3-1.7-7.6-5.5-8.3-9.6c-0.7-4.3,1.6-8.8,5.3-10.4
		C221.8,409.9,225.8,410.6,229.2,412.8z M244.8,394.8c-4.5,0.1-8.8,3.4-10.1,7.6c-2.3,7.2,3.3,14.4,5.9,17.2
		c1.8-0.9,3.7-1.5,5.9-1.6c2.3-0.1,4.4,0.5,6.3,1.5c2.8-6.1,5-12.4,2.7-17.8C253.8,397.5,249.2,394.9,244.8,394.8z M253.7,456.8
		c3,1.8,7,1.8,10,0.1c3-1.8,4.8-5.4,4.4-8.8c-0.3-2.7-1.9-5.5-4.5-7.8c-1.9-1.7-4.3-3.1-6.8-4.4c-2.1,3-5.3,5.1-9.1,5.7
		c-0.2,3.1,0,5.9,0.7,8.2C249.5,452.9,251.4,455.4,253.7,456.8z M236.8,455.5c4.2-2.6,6.9-7.8,7.5-13.8c-3.4-0.8-6.9-3.9-8.2-5.9
		c-1.4-0.5-10,2.2-12.6,5.6c-2.9,3.7-3.3,9-0.8,12.3C225.6,457.6,232.2,458.4,236.8,455.5z M279.3,420.3c-1-3.5-4-6.3-7.6-7.4
		c-6.3-1.8-12.1,1.7-16.7,8.2c2.1,2.3,3.5,5.3,3.6,8.7c0,0.8-0.1,1.6-0.2,2.3c5.8,1.2,13.4,2.6,18.2-1.9
		C279.3,427.9,280.3,423.9,279.3,420.3z"/>
	<path fill="#F4CB64" d="M466.3,388.7c-26.8-6.8-53.8-9.3-82.2-11.9c1.6-3.6,3.3-7.2,4.9-10.8c28.7,1.2,53,4.8,75.5,11
		C465,380.9,465.6,384.8,466.3,388.7z M626.2,538.8c-2.9-5.4-9.7-7.3-15.1-4.4c-5.4,2.9-7.3,9.7-4.4,15.1c2.9,5.4,9.7,7.3,15.1,4.4
		C627.2,551,629.1,544.2,626.2,538.8z M198.8,484.9c-4.5-4.2-11.7-3.9-15.9,0.6c-4.2,4.5-3.9,11.7,0.6,15.9
		c4.5,4.2,11.7,3.9,15.9-0.6C203.6,496.3,203.3,489.1,198.8,484.9z M255.9,429.6c-0.1-5.1-4.4-9.2-9.5-9c-5.1,0.1-9.2,4.4-9.1,9.5
		c0.1,5.1,4.4,9.2,9.5,9.1C252,438.9,256,434.7,255.9,429.6z M628.7,194.1c0-6.9-5.6-12.5-12.5-12.5s-12.5,5.6-12.5,12.5
		c0,6.9,5.6,12.5,12.5,12.5S628.7,201,628.7,194.1z"/>
	<path fill="#E7E2E7" d="M640.5,360.6c-5.3,8-13.7,13.3-22.2,17.5c-26.2,12.8-59,15.9-88.9,10.5c-17.7-14.2-33.3-31-45.9-49.9
		c17.6,1.4,40.4-0.3,57-4c24.3-5.4,44-8,68.7-10.8c11.8-1.3,25.8-0.1,32.5,9.7C647.2,341.5,645.8,352.7,640.5,360.6z M597.2,462.7
		c-1-6.7-6.9-11.4-12.3-15.5c-5.4-4-15.1-10.6-20.5-14.6c-0.7,5.6-4.4,9.1-9.7,12.8c-9.3,6.5-21.9,7-32.2,2.3
		c-11.9-5.6-28-17.5-37.6-23.4c1.7,5.9,6.1,16.3,9,22.8c7.1,7.8,15,14.9,23.8,21.8c17.8,14,42.2,21.6,63.4,13.9
		C589.8,479.6,598.5,471.9,597.2,462.7z M371.7,383.9c-6.4-1-14.8-0.9-21.2-1.9c-12.2,6.3-25.3,12.8-36.6,18.8
		c-3.5,1.9-7.2,3.8-10,6.6c-2.8,2.8-4.8,6.8-4.4,10.8c0.8,7,8.3,11.1,15.2,12.7c11.2,2.7,23.2,2,34.1-1.6
		C357.1,415.2,366.4,399.8,371.7,383.9z M312.7,311.7c-1.6,0.2-1.8,2.4-0.3,2.9c16.8,5.5,28.2,12,45.8,14.2c3.7,0.5,21,1.2,22.2-5.3
		c-14.5-3.4-28-12.3-40.2-19.2C332.3,307.7,322.1,310.8,312.7,311.7z"/>
	<path fill="#B28D70" d="M360.8,224.6c0-7.8,6.4-14.2,14.2-14.2s14.2,6.4,14.2,14.2c0,7.8-6.4,14.2-14.2,14.2
		S360.8,232.4,360.8,224.6z M334.4,274.3c3.6,0.4,7.3,0.6,10.9,0.8c-2-2.7-3.9-5.5-5.6-8.4c-16.7-28.1-18.6-64.1-5.9-92.2
		c1.1-2.4-1.2-4.9-3.7-4c-0.4,0.1-0.8,0.3-1.1,0.4c-2.3,0.8-4.1,2.6-5,4.8c-11.9,29.9-9.2,65.9,8.3,95.3
		C333.1,272.1,333.8,273.2,334.4,274.3z M377.3,378.5c1-2,2.1-4,3.1-6.1c0.6-1.3,1.1-2.6,1.7-3.8c-17.4,4.9-36.9,2.5-52.8-6.6
		c-17.4-10-32.6-24.5-32.8-29.4c-0.1-2.8,0.4-4.6,1.6-5.4c5.6-3.9,24.6,4.2,33.8,8.1c4.3,1.8,7.6,3.2,10,3.9
		c14.4,4.1,34.6,5.1,51.8-2.7c0.6-1.4,0.9-2.8,0.9-3.4c0.1-1,0-2.2-0.9-2.8c-0.4-0.3-2.2-0.9-4-1.3c-15,6.6-32.8,5.7-45.5,2
		c-1.9-0.5-5.2-1.9-9-3.6c-13.7-5.8-32.5-13.8-42-7.2c-2.6,1.8-5.6,5.5-5.3,12.8c0.5,11.3,23,28.3,37.1,36.4
		c11.8,6.8,25.5,10.3,39,10.3C368.5,379.7,373,379.3,377.3,378.5z M448.3,250.7c3-2.1,7-2.9,10.5-2c3.6,0.9,6.8,3.3,8.5,6.6
		c0.8,1.5,2.3,2.3,3.8,2.3c0.7,0,1.3-0.2,2-0.5c2.1-1.1,2.9-3.7,1.8-5.8c-2.8-5.4-8.1-9.5-14.1-10.9c-5.9-1.4-12.5-0.2-17.5,3.4
		c-1.9,1.4-2.4,4-1,6C443.7,251.6,446.3,252.1,448.3,250.7z M578.2,266.9c-1.4-7.8-6.4-17.3-16-20.4c-5.1-1.7-11.1-0.8-15.8,2.4
		c-4,2.7-6.5,6.8-6.8,11.3c-0.2,2.4,1.6,4.4,4,4.5c2.4,0.1,4.4-1.6,4.5-4c0.2-2.4,2-4,3.1-4.8c2.5-1.7,5.7-2.2,8.3-1.3
		c6,2,9.3,8.7,10.3,13.9c1.5,8.3-1,17.4-6.5,23.8c-5,5.8-11.6,6.7-21.3,6.3c-0.9-0.1-1.7,0.2-2.4,0.6c-34.4,20.7-72.8,29.6-108.1,25
		c-25.7-3.3-49.9-14.2-68.5-30.3c-2.6,1.6-5.3,3.1-8.1,4.5c20.1,18.3,46.6,30.6,75.5,34.3c6.4,0.8,12.9,1.2,19.4,1.2
		c31.2,0,63.6-9.2,93.1-26.8c9.1,0.3,19.1-0.5,26.8-9.3C577,289.4,580.2,277.8,578.2,266.9z M540.4,408.6c-1.4-1.2-2.8-2.3-4-3.5
		l-4.1-3.8c-6.9-6.4-14-13.1-20.8-19.9c0,0-5.4-5.3-5.4-5.3c-4-4-8-7.9-12-12c-4.8-4.9-9.5-9.9-13.9-15.2c-2.2-2.6-4.3-5.2-6.3-7.9
		c-0.9-1.2-1.3-1.9-2.9-1.8c-1,0.1-2.3,0.5-2.7,1.6c-0.3,0.9-0.8,4.3-0.2,6.7c9.6,12.4,21.3,24.1,32,34.6l5.3,5.3
		c6.9,6.8,14,13.5,21,20l4.1,3.8c1.3,1.3,2.9,2.5,4.5,3.8c7.7,6.3,11,9.9,8.4,15.3c-1,2-2.3,3-4.5,3.4c-15,2.7-50.2-25.2-65.3-38.9
		c1.2,5,2.5,9.9,4.1,14.8c15.8,13.1,42.3,32.8,59.4,32.8c1.2,0,2.3-0.1,3.3-0.3c4.8-0.9,8.5-3.6,10.7-8
		C556.9,422.2,547,414,540.4,408.6z M394.9,526.4c-2.8-0.5-5.6-1-8.4-1.6c-3.1,13.1-5,24.9-5.6,35.7c-0.7,11.3,0.8,22.9,2.3,34.1
		c0.3,2.1,0.5,4.1,0.8,6.2c-2.1,3.8-4.9,7.4-8,9.6c-4.1,2.9-9,4.5-14,4.8c-1.6-2.3-3-4.9-4.1-7.5c-14.1-30.4-18.1-65.3-11.8-97.4
		c-2.6-1.4-5.2-2.9-7.8-4.4c-7.5,34.6-3.4,72.5,11.8,105.4c3.1,6.7,7.3,14.1,15,17.3c2.3,1,4.9,1.4,7.6,1.4c3.8,0,7.9-1,11.4-2.9
		c5-2.7,8.2-6.7,9.1-11.5c0.7-3.6,0.3-7.2,0-10.3c-0.4-4-0.9-8-1.5-12c-1.4-10.8-2.8-22-2.2-32.5C390,550.5,391.9,539.1,394.9,526.4
		z M514.9,558.8c-5.3-4.4-10.3-8.6-13.7-13.8c-7-10.5-11.7-20-14.5-29.1c-2.6,1.1-5.3,2.2-8,3.1c3,9.8,8,19.7,15.4,30.7
		c4.1,6.2,9.9,11,15.4,15.6c3.4,2.8,6.7,5.6,9.5,8.5c1.9,9.1,0.6,19.7-3.8,27.4c-4.4,0.1-9.5-0.9-13.8-2.6
		c-31.5-12.8-57.1-41.5-64-70.7c-2.9,0.2-5.7,0.5-8.6,0.6c7.1,32.2,34.9,64.1,69.4,78c4.1,1.7,10.3,3.3,16.4,3.3
		c5.6,0,11.2-1.4,15.2-5.4c7.2-7.3,6.5-18.7,2.9-26.1C528.5,570.1,521.6,564.4,514.9,558.8z"/>
	<path fill="#A5C3E0" d="M486.7,681.1c3.8-2.2,9.1-0.4,11.3,3.4c2.2,3.8,1.5,8.8-1.2,12.3c-2.6,3.5-6.9,5.4-11.2,6
		c-12.7,1.6-25-9-27.1-21.6c-2.1-12.6,4.7-25.6,15.1-33c5.5-3.9,12.1-6.4,19.1-7.4c5.6,2.2,11.2,4.6,17,6.5
		c4.2,1.4,8.5,2.6,12.9,3.3c-3.6,1.3-7.1,2.4-9.4,3.5c-5.5,2.7-11.1,5.3-15.6,9.4C493.2,667.4,486.3,675,486.7,681.1z M151.5,501.7
		c-1.8,4.5,0.2,10.4,4.5,13.4c4.2,2.9,10.2,3.3,15.3,0.9c4.5-2,8.3-6.2,10.7-11.3c-2.9-2.4-5-6.5-5.4-10.1c0,0-7.3-2.5-14.9-0.6
		C156.9,495.1,153,498,151.5,501.7z M174.2,461.9c6.6,2.6,10.3,9.8,13.2,17.4c-2.4,0.8-4.7,2.2-6.6,4.2c-1.7,1.9-2.9,4.1-3.6,6.4
		c-4.7-0.1-15.6-1.3-19.9-9.4c-2.6-4.8-1.8-11.2,1.9-15.2C163.1,461.5,169.2,459.8,174.2,461.9z M210.1,508.5
		c-2.7-1.3-5.2-3.5-7.7-6.3c2.6-3.8,3.5-8.3,2.7-12.7c3.3-1.1,6.4-2,9.6-2.2c4.2-0.3,7.9,0.6,10.5,2.7c3.3,2.5,4.9,7.1,3.9,11.2
		c-0.9,4.1-4.3,7.6-8.5,8.6C217.4,510.7,213.6,510.2,210.1,508.5z M191.8,534.1c-5-0.7-9.3-5.4-10-11c-0.7-5.2,4.2-14.9,5.8-15.7
		c2.8,0.7,8.4,0.2,12-2.1c4.7,5.6,6.8,12.3,5.6,18.1C203.8,529.8,197.6,534.8,191.8,534.1z M216.9,467.5
		c-0.1,7.9-7.7,13.4-13.7,17.5c-0.6-0.7-1.2-1.5-1.9-2.1c-3-2.8-6.8-4.1-10.6-4.2c-1.8-9.4,0.1-17.4,6.9-21.4
		c3.9-2.3,8.9-2.5,12.8-0.4C214.4,459,217,463.2,216.9,467.5z M174.1,325.7c-5.8-1.4-12.2,0.1-16.8,4c-4.5,3.9-7,10.1-6.4,16
		c5.5,3.7,14,4.2,19.3,0.3C175.6,342.1,175.9,332.1,174.1,325.7z M130.9,312c-5.5,0.5-11.5-3.4-13.9-8.4c2.1-4.5,6.5-8,11.4-8.9
		c4.9-0.9,10.2,0.7,13.8,4.2C140.9,304.3,136.4,311.5,130.9,312z M207.9,307c-5.9-2.2-9.9-9.3-9.9-15.6c4.4-3.6,10.6-4.8,16.1-3.2
		c5.5,1.6,10.1,5.9,11.9,11.3C221.9,304.3,213.8,309.3,207.9,307z M579.2,168c-5,2-8.3,8-7.5,13.8c0.8,5.6,5,10.8,10.8,13.2
		c5.1,2.1,11.3,2.1,17.4,0.2c-0.2-4.1,1.6-9,4.2-12.1c0,0-3.5-7.8-10.8-12.7C588.7,167.5,583.4,166.4,579.2,168z M629,156.5
		c2.9,7.4-0.3,15.8-4.3,23.9c-2.5-1.4-5.4-2.2-8.5-2.2c-2.9,0-5.6,0.7-8,1.9c-3.4-3.9-10.7-13.8-7.4-23.4c2-5.7,7.8-9.9,13.9-10
		C620.9,147.2,626.9,150.9,629,156.5z M618,221.2c-0.9-3.2-1.1-7-0.7-11.1c5.1-0.7,9.5-3.4,12.4-7.4c3.4,1.9,6.5,3.8,9,6.2
		c3.4,3.2,5.5,7,5.8,10.6c0.4,4.6-2.2,9.4-6.2,11.7c-4,2.3-9.5,2.2-13.5-0.4C621.7,228.8,619.2,225.3,618,221.2z M583.2,225.6
		c-3.2-4.6-2.6-11.7,1.4-16.6c3.7-4.5,15.3-7.9,17.2-7.1c1.6,2.8,6.2,7,10.8,8.2c-1,8.1-4.9,14.9-10.6,18.3
		C595.7,232.2,586.9,230.8,583.2,225.6z M656.7,195.8c-6.6,5.9-16.9,3.8-24.7,2c0.2-1,0.3-2.1,0.3-3.1c0-4.6-1.8-8.7-4.6-11.8
		c6.4-8.6,14.3-13.1,22.7-10.5c4.8,1.5,8.8,5.5,10,10.2C661.8,187.2,660.2,192.6,656.7,195.8z M326.8,292.2c6.9-1,13.7-2.3,20.4-4.1
		c3.4-0.9,6.8-1.9,10.1-3.1c2.1-0.7,7.8-3.3,9.2-2.2c0.6,0.5,0.9,1.2,0.7,2c-0.3,1.1-5.3,4.1-6.7,5c-4.9,3-10.1,5.6-15.4,7.8
		c-11.4,4.7-23.7,7.4-36,8.2c-13.3,0.9-26.7-0.6-39.5-4.3c-1-0.3-2-0.6-3-0.9c-10.8-3.5-17.3-8.6-20.9-14.7
		c-3.4-5.9-3.5-13.2-0.3-18.7c3.4-5.7,10.4-9,16.7-7.9c4.9,0.9,9,4.8,9.6,9.3c0.4,3-0.6,7.5-3.5,8.1c-6.1,1.3,2.7,8,4.4,9
		c4.4,2.7,9.3,4.3,14.3,5.4C291.7,292.1,309.3,294.7,326.8,292.2z M424,657.1c-6-0.6-12.2,4.7-11.8,10.8c-7.1-23.2,3.7-47,17-60
		c7.9-7.7,19.5-12.4,31.4-14.1c-2.1-1.8-4.1-3.6-6-5.6c-1.7-1.8-4.5-4.7-7.1-8c-5.4-0.5-10.9-0.4-16.2,0.8
		c-11.5,2.6-23.7,9.6-32.4,18.9c1.5,6.1,0.2,14-1,18.6c-2.1,8-7.4,15.4-14.7,19c-1.1,6-1.8,12-1.3,17.4c1.1,11.2,5.9,22.5,14.9,29.3
		c9,6.8,22.6,7.9,31.5,0.9c4.8-3.7,7.9-9.8,7.3-15.8C435,663.2,430.1,657.7,424,657.1z M213.1,637.9c-22.2,4.9-43.3,22.5-42.5,45.3
		c0.7,19.7,20.6,29.2,32.1,14.9c4.9-6.1,2-16.7-4.9-20.3c25.2-15.4,54.2-7.5,95.8-8.5c4.7-0.1,9.4-0.7,14-1.8
		c2.6-0.6,9.9-1.4,10.8-4.5c1.1-3.6-2.8-2.6-4.8-2.2c-9.3,1.7-20.1,1.6-25.8,1.5c-10-0.2-20-1.5-29.8-4
		C241.3,654.2,226.6,647,213.1,637.9z M348.6,624.7c-2.4-2.8-4.3-6-5.9-9.3c-16,7.3-33.4,10.5-49.9,10.6c-16.9,0.1-54.6-4.5-77-38.1
		c6.4,2.1,10.4-1.5,13.7-7.3c9.4-16.6-13.1-26.8-25.5-18c-6.8,4.9-10.3,13.6-10.3,22c0,8.4,3.1,16.6,7.4,23.8
		c16.7,28.6,50.4,44.4,83.5,45.4c26.4,0.8,52.8-7.5,77-19.4C356.6,632.3,352.1,628.9,348.6,624.7z M306.1,601.3
		c4-0.9,8-1.9,11.9-3.2c4.8-1.6,9.6-4,13.4-7.3c-12.9-6-28.3-16.2-30.3-29.6c6.8,1.7,13.9-5,13.5-12c-0.4-7-7.1-12.6-14.1-12.9
		c-7-0.3-13.7,4.1-17.2,10.1c-3.6,6-4.4,13.3-3.5,20.3C281.7,581.7,292.3,595,306.1,601.3z"/>
	<path fill="#C8D7E9" d="M555.7,577c-5.3-4-13-4-18.7-7.3c-9.7-5.6-18.4-13.2-25.2-22.1C530.5,548.5,550,559.1,555.7,577z
		 M216.6,677.7c0.8,2.2,21.5,3.2,53.5,9.5c25.4,5,52.3,4,73.6-9.2c16.1-10,26.6-22.6,33.4-38.6c-13,7.8-19.7,10.4-33.9,15.6
		c-9.3,13.6-34.8,20.9-53.6,21.4c-11.6,0.3-23.3-1.8-34.8-2.7C250.7,673.5,215,671.8,216.6,677.7z M439.4,611.4
		c11.4-7.9,26.6-9.8,39.6-5c6.5,2.4,12.3,6.3,18.8,8.7c11.9,4.4,26.3,2.8,35.6-5.8c9.3-8.6,12.7-25.9,4.6-35.6
		c14.3,3.1,28.1,13,31,26.3c3.8,17.8-7.9,37.6-25.3,42.8c-11,3.3-23,1.3-34-2.4c-10.9-3.6-21.3-8.8-32.4-12
		c-11.1-3.1-24.4-7.4-34.9-2.6c-5.2,2.4-13,8.5-17.7,14.5c-1.1,1.4-3.4,0.3-3-1.4C423.8,628,430.2,617.8,439.4,611.4z M528.7,653.2
		c17.3-2.2,37-12.5,43.2-33.5c2.4,17.4-6.8,26.5-14.9,33.3c-10.8,9-21.5,10.6-35.4,13c-5.1,0.9-15.9,2.3-27.8,10
		C500.5,662.9,514.1,655,528.7,653.2z M112.9,346.4c-5.9-2.2-9.9-9.3-9.9-15.6c4.4-3.6,10.6-4.8,16.1-3.2
		c5.5,1.6,10.1,5.9,11.9,11.3C126.9,343.7,118.8,348.6,112.9,346.4z M195.7,270.6c-2-4.6-6.3-8.1-11.2-9.1c-4.9-1-10.3,0.5-13.9,4
		c0.4,5.5,4.4,11.4,9.7,13C185.6,280,192.4,275.1,195.7,270.6z M260.6,254c-4.2-11.1,1-25.2,11.7-31c10.9-6,26.5-2.9,34,6.8
		c3.8,4.9,5.3,10.8,4,15.8c-1.3,5.3-6.6,10-11.8,10.4c-0.8,0.1-1.5,0.5-2,1.1c-0.5,0.6-0.6,1.5-0.4,2.2c3.4,8.1,12,21.8,53.1,20.3
		c1.9-0.1,6-0.3,6.8-0.1c3.6,1.3-1.8,3.7-3,4.1c-3.2,1-6.4,2-9.6,2.8c-8,2-16.3,3.2-24.5,3.6c-13.6,0.6-31.7,0.3-43.5-6.4
		c-1.7-1-2.4-3.4-1.1-4.9c2.4-2.8,3.2-7,2.7-10.8c-0.9-6.8-6.7-12.4-13.9-13.7C262.3,254,261.5,254,260.6,254z M341.1,611.5
		c-23.4,8.9-49.1,14.1-73.3,7.9c-5.5-1.4-11-3.4-16.2-5.7c-3.7-1.7-7.2-3.5-10.6-5.8c-1.9-1.3-7.2-3.9-7.1-6.6c0.1-4.7,5-1.1,7-0.2
		c3.3,1.5,6.7,2.7,10.1,3.7c6.7,2,13.6,3.4,20.4,4.7c22.5,4.2,45.3-3.4,65-14.5C337.4,600.3,338.9,606.6,341.1,611.5z M334.6,588.7
		c-6-2.6-16.5-8.8-19.4-11.2c-1.8-1.4-5.7-4-5.7-6.6c0.1-3,3.2-0.7,4.5,0c1.8,0.9,3.7,1.7,5.7,2.3c1,0.3,11.5,2,11.4,1.8
		C332.3,579.9,333,583.3,334.6,588.7z M396.3,577.8c11.7-8.2,25.6-13.4,39.8-15c2.7,4.2,5.1,8.5,7.8,12.7
		c-16.7,0.1-33.1,7.8-44.9,19.6C398.4,590,396.9,582.9,396.3,577.8z M426.7,561.4c1.6-0.3,1.8-2.4,0.3-2.9
		c-10.2-3.3-22-2.5-31.4,2.4l0.7,14.5C404.7,568.8,415.8,563.2,426.7,561.4z"/>
	<path fill="#EFCF86" d="M328.7,165.4c18.9-7.5,73.8-28.9,97.5-43c10.7-26.9,36.9-45.7,62.5-56.4c-12.9-15.5-39-21-58-21.1
		c-22.5-0.1-48.8,9.1-67.4,21.9c-32.4,22.2-52.8,62-63.6,98.9c-3.9,13.3-17.2,29.7-29.5,36.1c-17.5,9-37.4,10.7-56.8,11.6
		c-17.2,0.8-34.5,1.1-51.1,5.7c-25.1,7-45.8,22.8-58.7,44.9c-2.3,4,0.9,9,5.4,8.5c13.2-1.2,26.9,2.7,38.4,9.5
		c14.8,8.7,26.5,21.6,37.4,34.8c10.9,13.2,21.3,27,34.3,38.2c29.5,25.5,74.2,33.3,112,23.9c0,0,0,0,0-0.1
		c-27.5-10.3-72-45.5-43.3-65.4c-8-2.4-36.6-12.6-41.9-19.1c-5.3-6.4-7.5-13.4-6.4-21.7c1-7.6,8.1-15.2,14.3-16.4
		c0.9-0.2,1.5-1,1.3-1.9c-3-15.7,4.3-31.3,17.1-36.7c10-4.3,24.4-2.7,33.9,6.8c1.9,1.9,5.1,0.5,4.9-2.1c-0.8-17.3,2.4-32.4,8.6-48
		C321.4,170.3,324.7,167.1,328.7,165.4z M179.1,283.5c-8.2-2.4-14.4-11.4-15-19.9c5.6-5.3,13.8-7.6,21.3-6.1
		c7.5,1.5,14.2,6.9,17.3,13.9C197.7,278.3,187.2,285.9,179.1,283.5z M206.6,311.1c-8.1-3.1-13.7-12.8-13.6-21.5
		c6.1-4.9,14.7-6.6,22.3-4.5c7.6,2.2,13.9,8.2,16.5,15.6C226,307.3,214.7,314.2,206.6,311.1z M621.8,237.3
		c-5.9,30.2-16.3,53.2-43.3,73.8c-5.9,4.5-14.4,9.7-23.5,13.8c-10.7,4.7-30.9,8-47.2,8.7c-2.5,0.1-3.2-3.5-0.8-4.2
		c14.3-4.5,31.9-11.5,40.1-17.6c12-1,24.7-9.4,30.5-20c5.8-10.5,6-24,0.4-34.6c-3.9-7.5-10.9-13.8-19.2-15.2
		c-8.3-1.5-18.9,4.6-22.1,12.5c-24.5-21-48.6-46.5-71.2-68.8c-9.3-9.2-18.5-18.7-24.9-30c-5.9-10.4-9.3-22.6-7.6-34.4
		c12.5-26.7,42.2-44.9,67.4-53.5c22.7-2.5,46.3,4.3,65,17.5c19.7,13.9,34.2,34.5,42.6,57.2c-8.2,2.7-12.9,10-13.8,17.4
		c-0.3,2-2.1,3.3-4.1,3c-5.9-1-12.5-0.3-16.8,3.5c-5.3,4.7-7.9,12.2-6.6,19.2c1,5.6,5.7,11.5,11.5,14.6c1.9,1,2.6,3.4,1.3,5.3
		c-3.8,5.5-5.9,12.6-3.6,18.5c2.8,7.3,10,12.7,17.8,13.3c6,0.5,12.2-2,16.4-6.3c1.5-1.5,4.1-1.3,5.3,0.5
		C617,233.6,619.2,235.7,621.8,237.3z M316.6,250.9c2.1,7.3,6.2,15.1,10.2,20.8c0.9,1.3-0.1,2.9-1.7,2.7c-7.3-0.9-17-5.9-21.7-12.2
		c-0.7-0.9-0.4-2.2,0.5-2.8c3.7-2.5,7-4.7,9.7-9C314.3,249.2,316.2,249.5,316.6,250.9z"/>
</g>
</svg>
